<svg width="32" height="32" viewBox="0 0 32 32" fill="none" xmlns="http://www.w3.org/2000/svg">
  <g clip-path="url(#clip0_1356_9438)">
    <path d="M4 28H28" stroke="#0A84E6" stroke-width="2" stroke-linecap="round"
      stroke-linejoin="round" />
    <path
      d="M6.66797 28V6.66667C6.66797 5.95942 6.94892 5.28115 7.44902 4.78105C7.94911 4.28095 8.62739 4 9.33464 4H22.668C23.3752 4 24.0535 4.28095 24.5536 4.78105C25.0537 5.28115 25.3346 5.95942 25.3346 6.66667V28"
      stroke="#0A84E6" stroke-width="2" stroke-linecap="round" stroke-linejoin="round" />
    <path
      d="M12 28V22.6667C12 21.9594 12.281 21.2811 12.781 20.781C13.2811 20.281 13.9594 20 14.6667 20H17.3333C18.0406 20 18.7189 20.281 19.219 20.781C19.719 21.2811 20 21.9594 20 22.6667V28"
      stroke="#0A84E6" stroke-width="2" stroke-linecap="round" stroke-linejoin="round" />
    <path d="M13.332 12H18.6654" stroke="#0A84E6" stroke-width="2" stroke-linecap="round"
      stroke-linejoin="round" />
    <path d="M16 9.33398V14.6673" stroke="#0A84E6" stroke-width="2" stroke-linecap="round"
      stroke-linejoin="round" />
  </g>
  <defs>
    <clipPath id="clip0_1356_9438">
      <rect width="32" height="32" fill="white" />
    </clipPath>
  </defs>
</svg>